<svg xmlns="http://www.w3.org/2000/svg" width="180" height="180" viewBox="0 0 180 180">
  <rect width="180" height="180" rx="40" fill="#f59e0b"/>
  <path d="M45 45c0-5.5 4.5-10 10-10h25c5.5 0 10 4.5 10 10v90c0 5.5-4.5 10-10 10H55c-5.5 0-10-4.5-10-10V45z" fill="white" opacity="0.9"/>
  <path d="M90 45c0-5.5 4.5-10 10-10h25c5.5 0 10 4.5 10 10v90c0 5.5-4.5 10-10 10h-25c-5.5 0-10-4.5-10-10V45z" fill="white" opacity="0.7"/>
  <path d="M55 55h20v10H55zM55 75h20v5H55zM55 85h20v5H55zM55 95h20v5H55z" fill="#f59e0b" opacity="0.5"/>
</svg>
